<svg xmlns="http://www.w3.org/2000/svg" width="16" height="16" viewBox="0 0 16 16"><path d="M378.3,1126a13.812,13.812,0,0,1,6.6,0,12.157,12.157,0,0,1,3.3,1.4,2.666,2.666,0,0,1,1.5,2.2v3h-16v-3a2.8,2.8,0,0,1,1.5-2.2A8.716,8.716,0,0,1,378.3,1126Zm7.4,2.3a11.5,11.5,0,0,0-4.1-.8,11.941,11.941,0,0,0-4.1.8c-1.4.5-2,1-2,1.3v1.1h12.2v-1.1C387.7,1129.3,387,1128.8,385.7,1128.3Zm-6.9-10.5a3.867,3.867,0,1,1-1.2,2.8A3.784,3.784,0,0,1,378.8,1117.8Zm4.3,1.3a2.175,2.175,0,1,0,.6,1.5A2.035,2.035,0,0,0,383.1,1119.1Z" transform="translate(-373.7 -1116.6)" fill="#fff"/></svg>