<svg xmlns="http://www.w3.org/2000/svg" width="22" height="14" viewBox="0 0 22 14"><path d="M929.2,952a15.5,15.5,0,0,1,2.9-.4,10.6,10.6,0,0,1,2.9.4,10.276,10.276,0,0,1,2.8,1.2,2.412,2.412,0,0,1,1.3,1.9v2.5h-14v-2.5a2.2,2.2,0,0,1,1.3-1.9A8.789,8.789,0,0,1,929.2,952Zm4.9-3.3a2.9,2.9,0,1,1,.9-2.1A2.878,2.878,0,0,1,934.1,948.7Zm8,0a2.9,2.9,0,1,1,.9-2.1A2.878,2.878,0,0,1,942.1,948.7Zm-2.1,2.9a10.6,10.6,0,0,1,2.9.4,12.609,12.609,0,0,1,2.9,1.2,2.2,2.2,0,0,1,1.3,1.9v2.5h-6v-2.5a4.319,4.319,0,0,0-2-3.5Z" transform="translate(-925.1 -943.6)" fill="#fff"/></svg>