<svg xmlns="http://www.w3.org/2000/svg" width="20" height="19" viewBox="0 0 20 19"><path d="M796.2,1118.6a1.816,1.816,0,0,1,1.4.6,1.974,1.974,0,0,1,.6,1.4v11a2.051,2.051,0,0,1-2,2h-16a1.816,1.816,0,0,1-1.4-.6,1.974,1.974,0,0,1-.6-1.4v-11a2.051,2.051,0,0,1,2-2h2.2a5.759,5.759,0,0,1-.2-1,3.018,3.018,0,0,1,5.5-1.7l.5.7.5-.7a3.03,3.03,0,0,1,5.5,1.7,8.371,8.371,0,0,1-.2,1Zm0,8v-6h-5.1l2.1,2.8-1.6,1.2c-2-2.7-3.1-4.2-3.4-4.6-.2.3-1.4,1.9-3.4,4.6l-1.6-1.2,2.1-2.8h-5.1v6Zm0,5v-2h-16v2Zm-10.3-14.7a.967.967,0,1,0,.3.7A.908.908,0,0,0,785.9,1116.9Zm6,0a.967.967,0,1,0,.3.7A.908.908,0,0,0,791.9,1116.9Z" transform="translate(-778.2 -1114.6)" fill="#fff"/></svg>