<svg xmlns="http://www.w3.org/2000/svg" width="23.185" height="20.414" viewBox="0 0 23.185 20.414"><path d="M260.7,1221.3l1.3-1.3,17.7,17.7-1.3,1.3-1.5-1.5c-.9-.9-1.5-1.4-1.9-1.9a10.463,10.463,0,0,1-4.4.8,11.341,11.341,0,0,1-6.7-2.1,11.943,11.943,0,0,1-4.3-5.4,12.165,12.165,0,0,1,3.8-5l-1.6-1.6C261.1,1221.6,260.8,1221.4,260.7,1221.3Zm5.6,5.5a4.867,4.867,0,0,0-.6,2.2,4.539,4.539,0,0,0,1.5,3.5,5.288,5.288,0,0,0,3.5,1.5,4.558,4.558,0,0,0,2.2-.6l-1.5-1.5a1.7,1.7,0,0,1-.7.1,3.076,3.076,0,0,1-3-3,1.952,1.952,0,0,1,.1-.7Zm4.4-2.8a3.921,3.921,0,0,0-1.8.4l-2.2-2.2a10.187,10.187,0,0,1,4-.7,11.341,11.341,0,0,1,6.7,2.1,11.943,11.943,0,0,1,4.3,5.4,13.2,13.2,0,0,1-3.4,4.7l-2.9-2.9a5.839,5.839,0,0,0,.4-1.8,4.539,4.539,0,0,0-1.5-3.5A5.334,5.334,0,0,0,270.7,1224Zm-.1,2h.1a3.076,3.076,0,0,1,3,3v.2Z" transform="translate(-259.059 -1219.293)" fill="none" stroke="#000" stroke-width="1"/></svg>