<svg xmlns="http://www.w3.org/2000/svg" width="20.9" height="18" viewBox="0 0 20.9 18"><path d="M856.7,1118.2a8.6,8.6,0,0,1,6.4-2.6,9,9,0,0,1,6.4,2.6,8.448,8.448,0,0,1,2.6,6.4,9,9,0,0,1-2.6,6.4,8.448,8.448,0,0,1-6.4,2.6,8.6,8.6,0,0,1-6.3-2.6l1.4-1.5a6.662,6.662,0,0,0,4.9,2.1,7.2,7.2,0,0,0,5-2,6.767,6.767,0,0,0,0-9.8,7.028,7.028,0,0,0-5-2,6.632,6.632,0,0,0-4.9,2,6.8,6.8,0,0,0-2,4.9h3l-4,4-.1-.1-3.9-3.9h3A8.232,8.232,0,0,1,856.7,1118.2Zm5.4,2.4h1.5v4.2l3.5,2.1-.8,1.2-4.3-2.6v-4.9Z" transform="translate(-851.2 -1115.6)" fill="#fff"/></svg>