<svg xmlns="http://www.w3.org/2000/svg" width="17" height="20" viewBox="0 0 17 20"><path d="M165.8,989.4l2,2v1h-17v-1l2-2v-5.5a6.489,6.489,0,0,1,1.4-4,5.828,5.828,0,0,1,3.6-2.3v-.7a1.5,1.5,0,0,1,.4-1.1,1.366,1.366,0,0,1,1.1-.4,1.5,1.5,0,0,1,1.1.4,1.366,1.366,0,0,1,.4,1.1v.7a6.426,6.426,0,0,1,3.6,2.3,5.935,5.935,0,0,1,1.4,4Zm-2,1v-6.5a4.377,4.377,0,0,0-1.3-3.2,4.224,4.224,0,0,0-3.2-1.3,4.377,4.377,0,0,0-3.2,1.3,4.224,4.224,0,0,0-1.3,3.2v6.5Zm-3.1,4.4a2,2,0,0,1-3.4-1.4h4A1.816,1.816,0,0,1,160.7,994.8Z" transform="translate(-150.8 -975.4)" fill="#fff"/></svg>