<svg xmlns="http://www.w3.org/2000/svg" width="16" height="21" viewBox="0 0 16 21"><path d="M905,1085.8a2.051,2.051,0,0,1,2,2v10a2.051,2.051,0,0,1-2,2H893a2.051,2.051,0,0,1-2-2v-10a2.051,2.051,0,0,1,2-2h1v-2a4.539,4.539,0,0,1,1.5-3.5,5.288,5.288,0,0,1,3.5-1.5,4.691,4.691,0,0,1,3.5,1.5,5.288,5.288,0,0,1,1.5,3.5v2Zm0,12v-10H893v10Zm-3.8-16.2a3.1,3.1,0,0,0-5.3,2.2h.1v2h6.1v-2A3.1,3.1,0,0,0,901.2,1081.6Zm-.8,12.6a1.933,1.933,0,1,1,.6-1.4A1.64,1.64,0,0,1,900.4,1094.2Z" transform="translate(-891 -1078.8)" fill="#fff"/></svg>