<svg xmlns="http://www.w3.org/2000/svg" width="19" height="19" viewBox="0 0 19 19"><path d="M816.1,426.1a.5.5,0,1,1-.5.5A.472.472,0,0,1,816.1,426.1Zm0,4a.5.5,0,1,1-.5.5A.472.472,0,0,1,816.1,430.1Zm2.3-8.2a.967.967,0,1,1-.3.7A.908.908,0,0,1,818.4,421.9Zm0,4a.967.967,0,1,1-.3.7A.908.908,0,0,1,818.4,425.9Zm0,4a.967.967,0,1,1-.3.7A.908.908,0,0,1,818.4,429.9Zm0,4a.967.967,0,1,1-.3.7A.908.908,0,0,1,818.4,433.9Zm3.6-8.4a1.712,1.712,0,1,1-.4,1.1A1.82,1.82,0,0,1,822,425.5Zm0,4.1a1.712,1.712,0,1,1-.4,1.1A1.82,1.82,0,0,1,822,429.6Zm1.8-6.3a.967.967,0,1,1,.3-.7A.908.908,0,0,1,823.8,423.3Zm-1.4,10.6a.967.967,0,1,1-.3.7A.908.908,0,0,1,822.4,433.9Zm.7-13.8a.5.5,0,1,1,.5-.5A.472.472,0,0,1,823.1,420.1Zm0,17a.5.5,0,1,1-.5.5A.472.472,0,0,1,823.1,437.1Zm3-11.6a1.712,1.712,0,1,1-.4,1.1A1.366,1.366,0,0,1,826.1,425.5Zm0,4.1a1.712,1.712,0,1,1-.4,1.1A1.366,1.366,0,0,1,826.1,429.6Zm1.7-6.3a.967.967,0,1,1,.3-.7A.908.908,0,0,1,827.8,423.3Zm-1.4,10.6a.967.967,0,1,1-.3.7A.908.908,0,0,1,826.4,433.9Zm.7-13.8a.5.5,0,1,1,.5-.5A.472.472,0,0,1,827.1,420.1Zm0,17a.5.5,0,1,1-.5.5A.472.472,0,0,1,827.1,437.1Zm3.3-15.2a.967.967,0,1,1-.3.7A.908.908,0,0,1,830.4,421.9Zm0,4a.967.967,0,1,1-.3.7A.908.908,0,0,1,830.4,425.9Zm0,4a.967.967,0,1,1-.3.7A.908.908,0,0,1,830.4,429.9Zm0,4a.967.967,0,1,1-.3.7A.908.908,0,0,1,830.4,433.9Zm3.7-6.8a.5.5,0,1,1,.5-.5C834.6,426.9,834.5,427.1,834.1,427.1Zm0,3a.5.5,0,1,1-.5.5A.472.472,0,0,1,834.1,430.1Z" transform="translate(-815.6 -419.1)" fill="<%= current_user.color %>"/></svg>